<?xml version="1.0" encoding="UTF-8"?>
<svg xmlns="http://www.w3.org/2000/svg" viewBox="0 0 760 180" role="img" aria-label="chaserAI">
  <path fill="#ededed" fill-rule="evenodd" d="M90 6H670A84 84 0 0 1 670 174H90A84 84 0 0 1 90 6ZM90 17A73 73 0 0 0 90 163H670A73 73 0 0 0 670 17Z"/>
  <path fill="#ededed" fill-rule="evenodd" transform="translate(94 90)" d="M-27.5 0A27.5 27.5 0 1 1 27.5 0A27.5 27.5 0 1 1 -27.5 0ZM-16.5 0A16.5 16.5 0 1 0 16.5 0A16.5 16.5 0 1 0 -16.5 0Z"/>
  <path fill="#ededed" transform="translate(94 90)" d="M19.889 12.111L33.889 26.111A5.5 5.5 0 0 1 26.111 33.889L12.111 19.889A5.5 5.5 0 0 1 19.889 12.111Z"/>
  <text x="160" y="122" fill="#a78bfa" font-family="Nunito, 'Trebuchet MS', 'Avenir Next', Avenir, system-ui, -apple-system, sans-serif" font-weight="500" font-size="96" letter-spacing="-0.5">chaserAI</text>
</svg>
